<?xml version="1.0" standalone="no"?>
<!DOCTYPE svg PUBLIC "-//W3C//DTD SVG 20010904//EN"
 "http://www.w3.org/TR/2001/REC-SVG-20010904/DTD/svg10.dtd">
<svg version="1.0" xmlns="http://www.w3.org/2000/svg"
 width="1000.000000pt" height="1000.000000pt" viewBox="0 0 1000.000000 1000.000000"
 preserveAspectRatio="xMidYMid meet">
<metadata>
Created by potrace 1.11, written by Peter Selinger 2001-2013
</metadata>
<g transform="translate(0.000000,1000.000000) scale(0.100000,-0.100000)"
fill="#000000" stroke="none">
<path d="M300 6390 c0 -1837 2 -3340 3 -3340 21 0 146 49 195 77 174 96 291
289 507 838 31 77 48 119 76 180 16 37 244 583 294 705 12 30 47 114 77 185
31 72 100 238 156 370 55 132 178 425 272 650 95 226 188 448 207 495 31 76
85 204 133 315 9 22 61 146 115 276 l98 236 64 2 64 2 18 -43 c11 -24 85 -200
166 -393 80 -192 152 -364 160 -380 7 -17 18 -42 24 -56 5 -15 46 -111 89
-215 44 -104 189 -448 322 -764 133 -316 289 -687 347 -825 58 -137 116 -275
128 -305 84 -206 317 -750 405 -945 10 -22 25 -56 33 -77 39 -93 131 -205 210
-255 47 -30 155 -68 218 -77 108 -17 99 -8 99 -92 l0 -74 -873 0 -873 0 1 70
c0 38 3 71 5 73 3 3 59 8 125 11 150 7 197 13 260 31 74 22 110 48 135 100 43
88 20 175 -145 570 -37 88 -87 210 -111 270 -25 61 -51 124 -58 140 -8 17 -42
98 -75 180 -34 83 -66 159 -72 170 -10 20 -19 20 -842 19 -458 -1 -838 -2
-844 -3 -7 0 -13 -6 -13 -11 0 -6 -9 -29 -19 -53 -50 -109 -216 -534 -262
-670 -69 -206 -89 -319 -73 -414 15 -93 47 -155 107 -209 78 -70 175 -108 307
-120 30 -3 56 -7 58 -9 3 -3 5 -82 3 -127 -1 -17 -37 -18 -611 -18 l-610 0 0
-1280 0 -1280 4705 0 4705 0 0 3416 c0 2966 -2 3415 -14 3411 -8 -3 -32 -11
-54 -16 -56 -16 -151 -80 -200 -137 -75 -87 -176 -316 -276 -629 -41 -128
-214 -712 -320 -1080 -19 -66 -53 -183 -76 -260 -23 -77 -48 -162 -55 -190 -7
-27 -20 -72 -28 -100 -8 -27 -27 -90 -42 -140 -63 -213 -147 -502 -154 -530
-4 -16 -17 -61 -29 -100 -48 -159 -87 -291 -202 -690 -67 -231 -127 -438 -134
-460 l-13 -40 -71 -3 -72 -3 -21 48 c-12 26 -27 66 -34 88 -7 22 -50 139 -95
260 -81 217 -104 280 -253 685 -41 113 -80 216 -86 230 -8 21 -92 248 -393
1065 -16 44 -41 112 -54 150 -14 39 -31 84 -39 100 -7 17 -16 41 -20 55 -3 14
-10 34 -15 45 -13 28 -250 666 -254 685 -4 15 -31 88 -46 125 -5 11 -16 41
-26 68 -9 26 -18 47 -20 47 -1 0 -14 -35 -27 -77 -14 -43 -50 -154 -80 -248
-31 -93 -100 -309 -155 -480 -56 -170 -115 -355 -133 -410 -17 -55 -44 -138
-59 -185 -16 -47 -72 -220 -125 -385 -183 -570 -277 -860 -300 -930 -13 -38
-62 -191 -110 -340 -48 -148 -110 -342 -139 -430 l-52 -160 -74 -3 c-40 -2
-77 1 -81 5 -6 7 -123 377 -269 853 -21 69 -59 193 -85 275 -26 83 -55 177
-65 210 -10 33 -41 134 -70 225 -29 91 -60 192 -70 225 -55 185 -542 1754
-602 1940 -116 363 -165 468 -252 548 -62 58 -200 104 -326 109 l-50 3 0 75 0
76 832 0 832 -1 1 -72 c1 -83 7 -78 -105 -88 -161 -14 -275 -56 -321 -118 -24
-34 -46 -114 -43 -162 2 -51 30 -173 69 -310 18 -64 144 -481 175 -580 16 -51
93 -303 210 -685 125 -407 236 -771 261 -855 17 -55 34 -111 39 -125 5 -14 23
-72 40 -130 18 -58 43 -139 55 -180 13 -41 36 -115 51 -165 15 -49 29 -83 31
-75 3 8 7 22 10 30 4 8 7 17 8 20 1 5 119 370 165 510 15 47 76 234 135 415
58 182 110 341 115 355 5 14 70 214 145 445 75 231 161 494 190 585 30 91 88
271 130 400 42 129 85 260 95 290 10 30 50 154 89 276 l72 220 88 0 c49 -1 92
-4 95 -7 5 -5 73 -188 261 -704 39 -109 127 -348 245 -670 48 -132 111 -305
140 -385 28 -80 55 -154 60 -165 4 -11 17 -45 28 -75 11 -30 45 -122 76 -205
74 -204 460 -1261 477 -1308 13 -36 14 -37 22 -15 5 13 17 52 27 88 10 36 61
216 115 400 53 184 114 396 135 470 21 74 80 284 133 465 52 182 97 339 100
350 3 11 12 43 21 70 29 101 67 230 71 247 2 9 19 69 38 135 73 246 141 523
155 633 42 326 -111 519 -415 524 -18 0 -33 5 -34 11 -1 12 -1 128 0 135 1 3
247 6 549 6 l547 0 3 1207 2 1207 -4705 0 -4705 0 0 -3340z"/>
<path d="M2232 6506 c-12 -27 -22 -52 -22 -56 0 -5 -6 -21 -14 -37 -22 -44
-642 -1541 -696 -1679 l-27 -71 778 0 c429 0 779 4 779 8 0 5 -354 864 -389
944 -14 32 -49 116 -206 495 -81 195 -153 369 -160 385 -7 17 -15 37 -17 45
-3 9 -13 -4 -26 -34z"/>
</g>
</svg>
